<?xml version="1.0" encoding="utf-8"?>
<!-- Generator: Adobe Illustrator 19.2.0, SVG Export Plug-In . SVG Version: 6.00 Build 0)  -->
<svg version="1.1" id="Layer_1" xmlns="http://www.w3.org/2000/svg" xmlns:xlink="http://www.w3.org/1999/xlink" x="0px" y="0px"
	 viewBox="0 0 1000 5308.6" style="enable-background:new 0 0 1000 5308.6;" xml:space="preserve">
<style type="text/css">
	.st0{fill:#FFFFFF;}
</style>
<g id="Layer_2">
</g>
<g id="Layer_1_1_">
	<path class="st0" d="M214.2,208v-0.5c0-36,26.5-67.4,66.9-67.4c40.1,0,66.9,30.9,66.9,66.9v0.5c0,36-26.5,67.4-66.9,67.4
		C240.9,274.9,214.2,244,214.2,208 M342.3,207.7v-0.5c0-33.7-25.5-62-61.5-62c-36.3,0-61,28.3-61,62v0.5c0,33.7,25.5,62,61.5,62
		C317.6,269.7,342.3,241.4,342.3,207.7"/>
	<polygon class="st0" points="24.7,334.2 30.4,334.2 71.8,455.7 113.8,333.5 118.1,333.5 159.8,455.7 201.5,334.2 206.9,334.2 
		161.9,463.9 157.5,463.9 115.8,341.4 74.1,463.9 69.8,463.9 	"/>
	<path class="st0" d="M227.8,398.6V398c0-38.1,26-66.9,61.7-66.9c40.7,0,59.2,35.8,59.2,67.9v1h-115c1,37.1,27,60.7,58.7,60.7
		c19.8,0,37.3-11.6,47.6-26l4.4,3.1c-11.1,16-29.6,28-52.2,28C256.8,466,227.8,440,227.8,398.6 M342.8,395.2
		c-1-29.3-19.6-58.9-53.5-58.9c-31.9,0-54.3,25.2-55.6,58.9H342.8z"/>
	<path class="st0" d="M376,427.4v-0.5c0-27,25.2-40.9,57.4-40.9c18,0,35.5,3.3,48.4,8v-10.8c0-31.1-18.5-45.8-48.6-45.8
		c-16,0-29.3,4.4-42.7,10.8l-2.1-4.6c14.2-6.9,28.3-11.3,45-11.3c17.7,0,31.6,4.6,41.2,14.1c8,8,12.6,20.6,12.6,36.5v80h-5.4v-30.4
		c-5.4,14.9-24.7,33.4-57.6,33.4C398.9,466,376,452.8,376,427.4 M481.7,415.8v-16.5c-13.6-5.1-28.6-8.2-48.1-8.2
		c-29.1,0-52,11.8-52,35.5v0.5c0,22.6,20.1,33.7,42.7,33.7C458.8,460.8,481.7,438.7,481.7,415.8"/>
	<path class="st0" d="M532.4,334.2h5.4v39.9c7.5-24.4,29.6-43,59.4-43c37.3,0,64.3,29.8,64.3,67.2v0.5c0,37.3-27,67.2-64.3,67.2
		c-29.8,0-52-18.5-59.4-43v4626.6h-5.4V334.2z M655.9,399.1v-0.5c0-34.2-23.7-62.3-58.9-62.3c-35,0-59.4,28.6-59.4,62v0.5
		c0,33.2,24.7,62,59.4,62C632.3,460.8,655.9,433.5,655.9,399.1"/>
	<path class="st0" d="M691.7,399.1v-0.5c0-36,26.5-67.4,66.9-67.4c40.1,0,66.9,30.9,66.9,66.9v0.5c0,36-26.5,67.4-66.9,67.4
		C718.5,466,691.7,435.1,691.7,399.1 M819.8,398.8v-0.5c0-33.7-25.5-62-61.5-62c-36.3,0-61,28.3-61,62v0.5c0,33.7,25.5,62,61.5,62
		C795.1,460.8,819.8,432.5,819.8,398.8"/>
	<path class="st0" d="M864.1,334.2h5.4v35.2c4.1-15.7,21.1-38.3,51.7-38.3c34.7,0,54,23.4,54,58.9v72.8h-5.4v-72.3
		c0-32.2-16.7-54.3-49.1-54.3c-28.6,0-51.2,24.4-51.2,55.3v71.3h-5.4V334.2z"/>
	<path class="st0" d="M485.5,5154.4h49.6h49.5l19.5-30.8l-69-77.8l-69.1,77.8L485.5,5154.4z M474.2,5126.9h28.9l-14.4,22.7
		L474.2,5126.9z M495.1,5149.6l11.6-18.2l20.1,18.2H495.1z M510,5126.9h25.1h25.1l-25.1,22.7L510,5126.9z M543.1,5149.6l20.1-18.2
		l11.6,18.2H543.1z M581.5,5149.6l-14.4-22.7H596L581.5,5149.6z M596,5121.8h-29.8l-25.1-61.3L596,5121.8z M560.1,5121.8H535h-25
		l25.1-61.3L560.1,5121.8z M529,5060.5l-25.1,61.3h-29.8L529,5060.5z"/>
	<polygon class="st0" points="25.6,91.7 30.4,91.7 167.3,262.5 167.3,91.7 172.7,91.7 172.7,271.8 167.8,271.8 31,100.9 31,271.8 
		25.6,271.8 	"/>
</g>
</svg>
