<?xml version="1.0" standalone="no"?>
<!DOCTYPE svg PUBLIC "-//W3C//DTD SVG 1.1//EN" "http://www.w3.org/Graphics/SVG/1.1/DTD/svg11.dtd" >
<svg xmlns="http://www.w3.org/2000/svg">
<metadata>
This is a custom SVG webfont generated by Fontspring.
Designer    : Robbie de Villiers
Foundry     : Wilton Foundry
Foundry URL : wiltonfoundry.com
</metadata>
<defs>
<font id="webfont" horiz-adv-x="500" >
<font-face units-per-em="1000" ascent="800" descent="-200" />
<missing-glyph horiz-adv-x="386" />
<glyph unicode=" "  horiz-adv-x="386" />
<glyph unicode="&#x09;" horiz-adv-x="386" />
<glyph unicode="&#xa0;" horiz-adv-x="386" />
<glyph unicode="!" horiz-adv-x="283" d="M119 712h59l2 -215l-7 -318h-48l-8 318zM109 42q0 42 40 42t40 -42t-40 -42t-40 42z" />
<glyph unicode="&#x22;" horiz-adv-x="369" d="M232 712h58l-1 -112l-4 -105h-48l-4 106zM106 712h58l-1 -112l-4 -105h-48l-4 106z" />
<glyph unicode="#" horiz-adv-x="581" d="M46 222v50h115l29 173h-118v50h126l34 217h52l-34 -217h149l34 217h52l-34 -217h99v-50h-107l-29 -173h110v-50h-118l-35 -222h-52l35 222h-149l-35 -222h-52l35 222h-107zM242 445l-29 -173h149l29 173h-149z" />
<glyph unicode="$" horiz-adv-x="562" d="M498 183q0 -74 -54.5 -128t-132.5 -62v-101h-49v99q-57 0 -114 27t-88 67l26 47q68 -90 185 -90q68 0 118.5 38.5t50.5 103.5q0 31 -12.5 55t-41.5 43t-50 29t-65 27q-46 18 -75 33t-58.5 38t-43.5 53.5t-14 70.5q0 72 53 122.5t129 56.5v67h49v-66q40 0 88.5 -20 t70.5 -44l-23 -51q-57 64 -158 64q-66 0 -108.5 -36t-42.5 -93q0 -28 13.5 -51t43 -42t50.5 -29t61 -26q50 -21 78.5 -35.5t58 -38t42.5 -55t13 -73.5z" />
<glyph unicode="%" horiz-adv-x="848" d="M170 -13l449 736h53l-450 -736h-52zM225 718q69 0 114 -48.5t45 -119.5q0 -73 -44 -121t-115 -48q-72 0 -116 48t-44 122q0 71 45 119t115 48zM226 671q-48 0 -79 -34t-31 -86q0 -53 31 -87.5t79 -34.5t77.5 34t29.5 88q0 52 -30 86t-77 34zM620 329q70 0 114.5 -47.5 t44.5 -119.5t-44 -120t-115 -48t-115 47t-44 122q0 71 44.5 118.5t114.5 47.5zM621 283q-48 0 -78.5 -34t-30.5 -86q0 -53 30.5 -87t78.5 -34t77.5 33.5t29.5 87.5q0 52 -30 86t-77 34z" />
<glyph unicode="&#x26;" horiz-adv-x="653" d="M551 347h53q-17 -108 -91 -209l112 -139h-70l-79 96q-102 -106 -230 -106q-88 0 -148 50.5t-60 134.5q0 146 180 226q-78 95 -78 171q0 68 46 107.5t116 39.5q63 0 107 -40.5t44 -100.5q0 -111 -153 -190l176 -208q26 30 47 78t28 90zM267 427q126 59 126 146 q0 44 -26 69.5t-69 25.5q-41 0 -71 -27t-30 -66q0 -68 70 -148zM251 360q-152 -69 -152 -181q0 -61 43 -100.5t104 -39.5q101 0 194 97z" />
<glyph unicode="'" horiz-adv-x="273" d="M127 712h18q20 0 23.5 -17t-1.5 -33q-9 -120 -13 -150q-1 -12 -4.5 -14t-17.5 -2q-9 0 -12.5 1.5t-4 5.5t0.5 9q-3 78 -10 150q-3 29 2 39.5t19 10.5z" />
<glyph unicode="(" horiz-adv-x="288" d="M115 290q0 -123 50 -261q41 -114 92 -180l-48 -5q-55 70 -95 177q-54 138 -54 269q0 132 54 270q40 107 95 177l48 -5q-51 -66 -92 -180q-50 -138 -50 -262z" />
<glyph unicode=")" horiz-adv-x="283" d="M177 290q0 124 -50 262q-41 114 -92 180l48 5q54 -69 96 -177q53 -139 53 -270q0 -130 -53 -269q-42 -108 -96 -177l-48 5q51 66 92 180q50 138 50 261z" />
<glyph unicode="*" horiz-adv-x="525" d="M244 347l8 149l-126 -81l-27 47l133 68l-133 68l27 47l126 -81l-8 149h54l-8 -149l126 81l27 -47l-133 -68l133 -68l-27 -47l-126 81l8 -149h-54z" />
<glyph unicode="+" horiz-adv-x="624" d="M51 306h229v226h56v-226h229v-56h-229v-229h-56v229h-229v56z" />
<glyph unicode="," horiz-adv-x="254" d="M133 79h23q31 0 14 -60q-5 -17 -24.5 -69t-27.5 -69q-7 -14 -28 -14q-18 0 -12 16q27 92 27 146q0 50 28 50z" />
<glyph unicode="-" horiz-adv-x="298" d="M32 241v56h234v-56h-234z" />
<glyph unicode="." horiz-adv-x="257" d="M132 86q25 0 32 -8.5t7 -35.5q0 -26 -8.5 -35t-30.5 -9q-25 0 -32 8.5t-7 35.5t8 35.5t31 8.5z" />
<glyph unicode="/" horiz-adv-x="350" d="M51 -33h-57l310 768h57z" />
<glyph unicode="0" horiz-adv-x="547" d="M518 357q0 -68 -12 -129.5t-38.5 -116t-75 -87t-114.5 -32.5t-114.5 32t-75 86.5t-38.5 115.5t-12 129t12 129.5t38.5 116t75.5 87t115 32.5q53 0 95 -22t68.5 -57t44 -83.5t24.5 -98t7 -102.5zM458 355q0 145 -48 229t-132 84q-52 0 -89 -29t-56 -78t-27 -99t-8 -105 q0 -56 8 -106.5t27 -99.5t56.5 -78t89.5 -29t89 29t55.5 78t26.5 99t8 105z" />
<glyph unicode="1" horiz-adv-x="365" d="M200 712h32v-712h-60v646l-86 -39l-20 44z" />
<glyph unicode="2" horiz-adv-x="551" d="M486 0h-433v35q17 23 50 59.5l93 103l104 115.5q110 124 110 208q0 63 -43 105t-106 42q-54 0 -102 -27.5t-70 -73.5l-30 44q25 48 85 78.5t119 30.5q89 0 148.5 -54t59.5 -142q0 -108 -135 -253q-15 -17 -57.5 -61.5l-58.5 -62l-40.5 -45.5t-39.5 -49h346v-53z" />
<glyph unicode="3" horiz-adv-x="551" d="M104 594l-21 52q17 27 69 50.5t110 23.5q90 0 151.5 -47t61.5 -131q0 -123 -131 -167q64 -14 101 -60.5t37 -115.5q0 -98 -67 -152.5t-169 -54.5q-65 0 -116.5 22.5t-78.5 54.5l29 52q20 -38 67 -57.5t99 -19.5q80 0 128 42.5t48 113.5t-48.5 108.5t-136.5 37.5h-39v53 h25q89 0 140.5 37.5t51.5 105.5q0 54 -43.5 90t-112.5 36q-48 0 -91 -19t-64 -55z" />
<glyph unicode="4" horiz-adv-x="552" d="M17 223l350 489h53v-478h105v-52h-106v-182h-57v182h-345v41zM362 234v392l-275 -392h275z" />
<glyph unicode="5" horiz-adv-x="551" d="M131 712h329v-53h-276l-19 -224q40 21 96 21q102 0 166 -62t64 -164q0 -109 -70 -173.5t-181 -64.5q-51 0 -103.5 19t-79.5 53l20 50q24 -31 72 -50.5t91 -19.5q85 0 138.5 50t53.5 134q0 81 -51 128.5t-136 47.5q-54 0 -112 -41l-31 5z" />
<glyph unicode="6" horiz-adv-x="567" d="M516 217q0 -97 -68.5 -161t-162.5 -64q-51 0 -91.5 17t-67 45t-44 66.5t-25 79.5t-7.5 87q0 94 39.5 191.5t117 167.5t170.5 70q19 0 38 -3l9 -50q-25 5 -43 5q-112 0 -197 -128q-45 -67 -66 -178q66 83 174 83q99 0 161.5 -66t62.5 -162zM112 241q14 -197 173 -197 q75 0 123 50t48 123q0 78 -46 126.5t-122 48.5q-69 0 -122.5 -42.5t-53.5 -108.5z" />
<glyph unicode="7" horiz-adv-x="552" d="M54 713h460v-31l-341 -694l-61 11l328 661h-386v53z" />
<glyph unicode="8" horiz-adv-x="551" d="M279 346q-166 -40 -166 -158q0 -66 48.5 -105t117.5 -39t117.5 38.5t48.5 104.5q0 57 -44.5 98.5t-121.5 60.5zM279 667q-64 0 -105 -36t-41 -93q0 -51 41 -91t105 -52q56 8 100.5 50t44.5 95q0 57 -43 92t-102 35zM196 371q-123 65 -123 169q0 83 62 131.5t148 48.5 q85 0 143 -49.5t58 -131.5q0 -106 -123 -168q143 -59 143 -184q0 -92 -64 -143.5t-162 -51.5q-94 0 -159.5 51.5t-65.5 140.5q0 131 143 187z" />
<glyph unicode="9" horiz-adv-x="551" d="M38 488q0 101 66 166.5t165 65.5q124 0 181 -83t57 -220q0 -157 -83 -278q-81 -119 -195 -141q-18 -3 -43 -3q-33 0 -60 4l-4 55q30 -6 57 -6q121 0 199 119q24 36 45 90.5t21 92.5q-73 -90 -180 -90q-99 0 -162.5 64t-63.5 164zM444 486q0 70 -49 125.5t-127 55.5 q-75 0 -122.5 -50t-47.5 -127q0 -78 46 -127.5t121 -49.5q72 0 125.5 46t53.5 127z" />
<glyph unicode=":" horiz-adv-x="270" d="M134 465q25 0 32 -8.5t7 -35.5q0 -26 -8.5 -35t-30.5 -9q-25 0 -32 8.5t-7 35.5t8 35.5t31 8.5zM134 87q25 0 32 -8.5t7 -35.5q0 -26 -8.5 -35t-30.5 -9q-25 0 -32 8.5t-7 35.5t8 35.5t31 8.5z" />
<glyph unicode=";" horiz-adv-x="284" d="M133 79h23q31 0 14 -60q-5 -17 -24.5 -69t-27.5 -69q-7 -14 -28 -14q-18 0 -12 16q27 92 27 146q0 50 28 50zM142 465q25 0 32 -8.5t7 -35.5q0 -26 -8.5 -35t-30.5 -9q-25 0 -32 8.5t-7 35.5t8 35.5t31 8.5z" />
<glyph unicode="&#x3c;" horiz-adv-x="609" d="M566 476l-450 -200l450 -200v-56l-514 230v52l514 230v-56z" />
<glyph unicode="=" horiz-adv-x="628" d="M565 349h-514v56h514v-56zM565 147h-514v56h514v-56z" />
<glyph unicode="&#x3e;" horiz-adv-x="626" d="M52 20v56l449 200l-449 200v56l514 -230v-52z" />
<glyph unicode="?" horiz-adv-x="445" d="M202 723q78 0 125 -46t47 -122q0 -52 -48 -111l-86 -87q-35 -37 -35 -80q0 -34 22 -71l-47 -28q-35 50 -35 99q0 66 59 120l70 71q41 47 41 89q0 51 -31.5 82.5t-84.5 31.5q-36 0 -68 -19.5t-45 -46.5q-19 29 -28 41q14 31 55.5 54t88.5 23zM195 87q25 0 32 -8.5t7 -35.5 q0 -26 -8.5 -35t-30.5 -9q-25 0 -32 8.5t-7 35.5t8 35.5t31 8.5z" />
<glyph unicode="@" horiz-adv-x="799" d="M414 723q145 0 246.5 -92.5t101.5 -223.5q0 -104 -57.5 -177t-136.5 -73q-36 0 -58.5 20.5t-22.5 58.5q0 9 1 14q-41 -93 -145 -93q-56 0 -94 47t-38 114q0 90 66 165t145 75q73 0 110 -34.5t37 -93.5q0 -27 -8 -59l-28 -103q-2 -10 -2 -15q0 -22 10.5 -37t27.5 -15 q55 0 98 62t43 147q0 107 -86.5 185.5t-207.5 78.5q-135 0 -232.5 -98.5t-97.5 -237.5q0 -135 97.5 -233t230.5 -98q84 0 165 38t115 92l29 -37q-35 -60 -123 -101t-178 -41q-165 0 -277.5 112t-112.5 274q0 151 113.5 265t268.5 114zM427 509q-64 0 -112 -61.5t-48 -139.5 q0 -100 81 -100q76 0 122 73q46 74 46 150q0 78 -89 78z" />
<glyph unicode="A" horiz-adv-x="655" d="M181 273h287l-143 367zM354 719l282 -719h-62l-86 220h-328l-86 -220h-61l286 719h55z" />
<glyph unicode="B" horiz-adv-x="580" d="M260 341h-115v-288h124q90 0 140 37t50 105q0 146 -199 146zM270 0h-185v712h172q223 0 223 -181q0 -115 -110 -156q72 -17 111.5 -63.5t39.5 -112.5q0 -96 -65.5 -147.5t-185.5 -51.5zM145 659v-265h105q168 0 168 134q0 131 -169 131h-104z" />
<glyph unicode="C" horiz-adv-x="672" d="M111 356q0 -134 77.5 -223.5t208.5 -89.5t201 85l14 -50q-79 -88 -210 -88q-158 0 -255.5 103t-97.5 263q0 156 98 261t251 105q138 0 214 -82l-19 -55q-78 84 -198 84q-129 0 -206.5 -90t-77.5 -223z" />
<glyph unicode="D" horiz-adv-x="679" d="M563 355q0 144 -77.5 224t-217.5 80h-124v-606h106q147 0 230 80t83 222zM84 0v712h190q165 0 258 -95t93 -262q0 -166 -99 -261q-97 -94 -274 -94h-168z" />
<glyph unicode="E" horiz-adv-x="520" d="M464 53v-53h-377v712h367v-53h-307v-262h277v-53h-277v-291h317z" />
<glyph unicode="F" horiz-adv-x="460" d="M143 346v-346h-60v712h349v-53h-289v-259h256v-54h-256z" />
<glyph unicode="G" horiz-adv-x="731" d="M114 357q0 -138 80.5 -226t212.5 -88q64 0 121.5 29t72.5 84v145h-185v52h245v-226q-78 -137 -257 -137q-159 0 -255.5 105.5t-96.5 261.5q0 160 98 262.5t249 102.5q74 0 140.5 -26.5t101.5 -70.5l-26 -51q-84 95 -216 95q-124 0 -204.5 -88t-80.5 -224z" />
<glyph unicode="H" horiz-adv-x="700" d="M87 0v712h60v-315h406v315h60v-712h-60v344h-406v-344h-60z" />
<glyph unicode="I" horiz-adv-x="220" d="M144 712v-712h-60v712h60z" />
<glyph unicode="J" horiz-adv-x="301" d="M158 92v620h60v-627q0 -183 -153 -183q-28 0 -57 9.5t-45 26.5l26 51q12 -15 34 -24t41 -9q94 0 94 136z" />
<glyph unicode="K" horiz-adv-x="592" d="M149 293v-293h-60v712h60v-343l331 343h79l-323 -329l350 -383h-78l-311 344z" />
<glyph unicode="L" horiz-adv-x="438" d="M83 712h60v-659h282v-53h-342v712z" />
<glyph unicode="M" horiz-adv-x="860" d="M431 150l250 563h72l34 -713h-60l-27 632l-251 -577h-37l-254 578l-27 -633h-60l34 713h75z" />
<glyph unicode="N" horiz-adv-x="740" d="M594 99v613h60v-712h-58l-453 619v-619h-60v712h65z" />
<glyph unicode="O" horiz-adv-x="759" d="M647 356q0 128 -73.5 220.5t-195.5 92.5t-195 -92t-73 -221q0 -130 72.5 -221.5t195.5 -91.5t196 92t73 221zM709 356q0 -156 -90 -261t-241 -105q-152 0 -241 104.5t-89 261.5t89 261.5t241 104.5q151 0 241 -105t90 -261z" />
<glyph unicode="P" horiz-adv-x="520" d="M147 659v-285h105q175 0 175 145q0 140 -160 140h-120zM264 321h-117v-321h-60v712h182q105 0 162 -51t57 -146q0 -90 -60.5 -142t-163.5 -52z" />
<glyph unicode="Q" horiz-adv-x="759" d="M709 356q0 -100 -39 -182t-110 -131l99 -101l-42 -34l-105 109q-62 -27 -134 -27q-152 0 -241 104.5t-89 261.5t89 261.5t241 104.5q151 0 241 -105t90 -261zM647 356q0 128 -73.5 220.5t-195.5 92.5t-195 -92t-73 -221q0 -130 72.5 -221.5t195.5 -91.5q50 0 93 17 l-48 50l40 34l57 -59q60 41 93.5 113.5t33.5 157.5z" />
<glyph unicode="R" horiz-adv-x="561" d="M230 334h-83v-334h-60v712h175q105 0 162.5 -48.5t57.5 -138.5q0 -71 -44.5 -117.5t-117.5 -57.5q20 -14 38.5 -38.5t53.5 -86.5l126 -225h-67l-117 209q-2 4 -12 22l-14 25t-14 22.5t-18 22.5l-18.5 16.5t-22.5 13t-25 3.5zM147 659v-272h103q79 0 124.5 37t45.5 103 q0 132 -166 132h-107z" />
<glyph unicode="S" horiz-adv-x="509" d="M465 186q0 -87 -64.5 -141.5t-154.5 -54.5q-137 0 -200 88l27 57q24 -42 72 -67t99 -25q66 0 113 40.5t47 103.5q0 32 -11.5 56t-38.5 43t-48 29.5t-63 28.5q-90 38 -136.5 80t-46.5 116q0 82 60.5 132t145.5 50q54 0 103 -20.5t70 -50.5l-26 -49q-49 67 -147 67 q-63 0 -103.5 -36t-40.5 -94q0 -23 10.5 -43t23.5 -33.5t38.5 -28.5t42 -22.5t47.5 -20.5q94 -40 137.5 -82.5t43.5 -122.5z" />
<glyph unicode="T" horiz-adv-x="515" d="M288 659v-659h-60v659h-216v53h492v-53h-216z" />
<glyph unicode="U" horiz-adv-x="679" d="M543 255v457h60v-460q0 -121 -71 -192q-70 -70 -190 -70q-122 0 -192 69q-70 70 -70 190v463h60v-459q0 -100 53 -155t149 -55q95 0 148 56t53 156z" />
<glyph unicode="V" horiz-adv-x="583" d="M293 90l227 622h62l-268 -719h-45l-264 719h63z" />
<glyph unicode="W" horiz-adv-x="980" d="M713 104l191 608h59l-227 -712h-46l-203 611l-207 -611h-48l-223 712h62l188 -607l205 607h47z" />
<glyph unicode="X" horiz-adv-x="586" d="M298 417l200 295h71l-235 -343l252 -369h-73l-216 321l-218 -321h-71l252 369l-235 343h72z" />
<glyph unicode="Y" horiz-adv-x="581" d="M290 373l215 339h68l-252 -394v-318h-60v319l-252 393h70z" />
<glyph unicode="Z" horiz-adv-x="551" d="M102 53h421v-53h-500v40l416 619h-393v53h472v-39z" />
<glyph unicode="[" horiz-adv-x="284" d="M72 -156v898h191v-45h-136v-808h136v-45h-191z" />
<glyph unicode="\" horiz-adv-x="354" d="M363 -8h-57l-313 743h57z" />
<glyph unicode="]" horiz-adv-x="300" d="M222 720v-898h-191v45h136v808h-136v45h191z" />
<glyph unicode="^" horiz-adv-x="595" d="M308 650l-187 -336h-57l220 399h48l219 -399h-57z" />
<glyph unicode="_" d="M504 -84v-52h-505v52h505z" />
<glyph unicode="`" horiz-adv-x="209" d="M103 701l77 -113h-42l-109 113h74z" />
<glyph unicode="a" horiz-adv-x="482" d="M356 153v86q-40 10 -110 10q-66 0 -108.5 -29.5t-42.5 -89.5q0 -43 29 -67.5t82 -24.5q55 0 97.5 32t52.5 83zM359 64q-65 -74 -161 -74q-72 0 -116 39t-44 100q0 75 57 119t155 44q62 0 106 -9v72q0 99 -121 99q-82 0 -141 -52l-18 42q21 24 70.5 40.5t91.5 16.5 q173 0 173 -151v-283l6 -67h-52q-6 34 -6 64z" />
<glyph unicode="b" horiz-adv-x="549" d="M131 750v-337q65 87 166 87q98 0 154 -68.5t56 -185.5q0 -111 -59.5 -183.5t-165.5 -72.5q-101 0 -162 79l-4 -69h-41v750h56zM130 294v-101q0 -65 45.5 -110t108.5 -45q79 0 121.5 61t42.5 147q0 94 -42.5 151t-114.5 57q-63 0 -107.5 -45t-53.5 -115z" />
<glyph unicode="c" horiz-adv-x="452" d="M410 92l12 -50q-56 -52 -148 -52q-110 0 -173 71t-63 184q0 111 65 183t173 72q88 0 141 -52l-13 -50q-52 54 -126 54q-83 0 -132.5 -56t-49.5 -149q0 -89 48.5 -149t133.5 -60q34 0 73 15t59 39z" />
<glyph unicode="d" horiz-adv-x="540" d="M422 0l-2 71q-58 -81 -158 -81q-105 0 -162.5 71.5t-57.5 182.5q0 112 56 184t162 72q103 0 158 -78v328h56v-750h-52zM418 191v110q0 61 -46.5 106t-107.5 45q-75 0 -119.5 -57t-44.5 -151q0 -93 45 -149.5t121 -56.5q62 0 105 45t47 108z" />
<glyph unicode="e" d="M419 105l26 -41q-25 -33 -74.5 -53.5t-103.5 -20.5q-108 0 -168.5 68.5t-60.5 188.5q0 103 58.5 178t156.5 75q97 0 151.5 -67.5t54.5 -192.5h-365q3 -91 48 -146.5t131 -55.5q39 0 82 18.5t64 48.5zM96 287h303q-7 76 -45 120.5t-98 44.5q-67 0 -110 -47.5t-50 -117.5z " />
<glyph unicode="f" horiz-adv-x="281" d="M264 442h-107v-442h-56v442h-84v47h84v104q0 164 136 164q31 0 58 -12v-48q-28 12 -57 12q-81 0 -81 -114v-106h107v-47z" />
<glyph unicode="g" d="M244 455q-57 0 -93 -38t-36 -99q0 -58 35.5 -95t92.5 -37q58 0 93.5 35.5t35.5 95.5q0 65 -34 101.5t-94 36.5zM58 320q0 78 53.5 129t132.5 51q61 0 105 -29q50 31 135 31v-45q-64 0 -95 -19q39 -45 39 -120q0 -81 -52.5 -130t-134.5 -49q-23 0 -49 6q-55 -21 -55 -49 q0 -43 124 -47q210 -7 210 -134q0 -52 -36 -84.5t-82 -42.5t-104 -10q-104 0 -163 34t-59 95q0 76 108 115q-55 18 -55 66q0 52 64 77q-86 55 -86 155zM253 -2l-33 3q-27 -5 -35.5 -7l-30.5 -7.5t-30 -11t-20 -14.5t-16.5 -22t-4.5 -30q0 -86 164 -86q28 0 54 4t53 12.5 t43.5 27.5t16.5 45q0 37 -43 60t-118 26z" />
<glyph unicode="h" horiz-adv-x="522" d="M451 314v-314h-56v308q0 144 -114 144q-63 0 -106.5 -46t-43.5 -106v-300h-56v750h56v-336q53 86 156 86q164 0 164 -186z" />
<glyph unicode="i" horiz-adv-x="200" d="M76 662q0 23 6 32.5t26 9.5q22 0 27 -10t5 -32q0 -23 -6.5 -32.5t-25.5 -9.5q-20 0 -26 9.5t-6 32.5zM80 494h56v-494h-56v494z" />
<glyph unicode="j" horiz-adv-x="210" d="M80 -63v558h56v-559q0 -79 -31.5 -119.5t-104.5 -36.5v53q48 -3 64 19.5t16 84.5zM76 662q0 23 6 32.5t26 9.5q22 0 27 -10t5 -32q0 -23 -6.5 -32.5t-25.5 -9.5q-20 0 -26 9.5t-6 32.5z" />
<glyph unicode="k" horiz-adv-x="472" d="M362 494h70l-223 -216l260 -278h-73l-234 246l-31 -30v-216h-56v750h56v-480z" />
<glyph unicode="l" horiz-adv-x="211" d="M76 0v750h56v-750h-56z" />
<glyph unicode="m" horiz-adv-x="799" d="M724 321v-321h-56v319q0 133 -103 133q-57 0 -97.5 -41t-40.5 -105v-306h-55v319q0 133 -103 133q-57 0 -97.5 -43.5t-40.5 -105.5v-303h-56v495h47l6 -81q49 86 146 86q51 0 86 -25.5t47 -62.5q20 42 63.5 65t92.5 23q161 0 161 -179z" />
<glyph unicode="n" horiz-adv-x="520" d="M451 314v-314h-56v308q0 71 -31.5 109t-89.5 38q-59 0 -101 -45.5t-42 -109.5v-300h-56v495h50l3 -81q29 47 65 67.5t87 20.5q82 0 126.5 -48t44.5 -140z" />
<glyph unicode="o" horiz-adv-x="542" d="M502 245q0 -110 -62.5 -182.5t-169.5 -72.5t-169.5 72.5t-62.5 182.5t63 182.5t169 72.5t169 -72.5t63 -182.5zM444 245q0 86 -46.5 146.5t-127.5 60.5t-127.5 -60.5t-46.5 -146.5t46.5 -146.5t127.5 -60.5t127.5 60.5t46.5 146.5z" />
<glyph unicode="p" horiz-adv-x="542" d="M131 69v-290h-56v715h47l8 -73q58 78 156 78q105 0 162 -72t57 -183q0 -108 -56.5 -181t-158.5 -73q-104 0 -159 79zM130 288v-94q0 -60 46 -108t105 -48q78 0 121.5 55.5t43.5 151.5q0 84 -43 145t-121 61q-60 0 -106 -48t-46 -115z" />
<glyph unicode="q" horiz-adv-x="539" d="M417 -221v294q-57 -83 -161 -83q-103 0 -159 71t-56 180q0 121 57.5 189.5t161.5 68.5q105 0 158 -70l5 66h50v-716h-56zM418 188v113q0 67 -45.5 108.5t-108.5 41.5q-77 0 -121 -56.5t-44 -152.5q0 -94 44.5 -149.5t121.5 -55.5q61 0 103 45t50 106z" />
<glyph unicode="r" horiz-adv-x="321" d="M132 268v-268h-56v494h50l4 -91q44 97 130 97q31 0 60 -17l-18 -44q-1 3 -16.5 7t-25.5 4q-42 0 -72.5 -31.5t-43 -71.5t-12.5 -79z" />
<glyph unicode="s" horiz-adv-x="393" d="M353 132q0 -63 -47 -103t-122 -40q-47 0 -90 17t-63 46l21 45q44 -59 134 -59q47 0 79 26t32 66q0 36 -27 59.5t-91 45.5q-133 46 -133 135q0 59 42.5 94.5t108.5 35.5q41 0 79 -15t57 -37l-25 -43q-44 48 -109 48q-45 0 -72 -23t-27 -59q0 -53 112 -92 q70 -25 105.5 -56.5t35.5 -90.5z" />
<glyph unicode="t" horiz-adv-x="301" d="M157 441v-345q0 -58 51 -58q26 0 52 12v-47q-38 -11 -70 -11q-89 0 -89 97v352h-89v47h89v139l56 8v-147h110v-47h-110z" />
<glyph unicode="u" horiz-adv-x="519" d="M394 494h56v-494h-44l-4 77q-42 -87 -155 -87q-173 0 -173 182v322h56v-311q0 -145 119 -145q61 0 103 39.5t42 99.5v317z" />
<glyph unicode="v" horiz-adv-x="436" d="M374 494h58l-190 -495h-46l-188 495h58l154 -416z" />
<glyph unicode="w" horiz-adv-x="732" d="M344 494h47l137 -410l143 410h56l-178 -494h-44l-140 411l-139 -411h-47l-174 494h58l140 -411z" />
<glyph unicode="x" horiz-adv-x="468" d="M367 494h66l-174 -232l188 -262h-68l-151 221l-154 -221h-67l189 262l-175 232h68l139 -192z" />
<glyph unicode="y" horiz-adv-x="444" d="M224 85l155 409h59l-251 -630q-19 -48 -48.5 -68.5t-86.5 -17.5v48q36 -3 53 7t28 34l64 150l-191 477h60z" />
<glyph unicode="z" horiz-adv-x="437" d="M45 446v48h372v-31l-319 -415h322v-48h-401v31l323 415h-297z" />
<glyph unicode="{" horiz-adv-x="268" d="M8 283v47q76 18 76 120v171q0 132 122 132h28v-47h-38q-54 0 -54 -80v-166q0 -113 -86 -154q86 -38 86 -153v-166q0 -80 54 -80h38v-47h-28q-122 0 -122 132v171q0 102 -76 120z" />
<glyph unicode="|" horiz-adv-x="242" d="M150 -60h-57v823h57v-823z" />
<glyph unicode="}" horiz-adv-x="263" d="M247 330v-47q-76 -18 -76 -120v-171q0 -132 -122 -132h-28v47h38q54 0 54 80v166q0 113 86 154q-86 38 -86 153v166q0 80 -54 80h-38v47h28q122 0 122 -132v-171q0 -102 76 -120z" />
<glyph unicode="~" horiz-adv-x="624" d="M195 280q-54 0 -101 -71l-32 43q18 37 56 61.5t79 24.5q23 0 115 -36.5t110 -36.5q28 0 50 16.5t51 54.5l32 -43q-18 -36 -54.5 -61t-80.5 -25q-21 0 -113.5 36.5t-111.5 36.5z" />
<glyph unicode="&#xa1;" horiz-adv-x="283" d="M164 -210h-59l-2 215l7 318h48l8 -318zM174 460q0 -42 -40 -42t-40 42t40 42t40 -42z" />
<glyph unicode="&#xa2;" horiz-adv-x="488" d="M240 28l-33 -123h-47l36 136q-134 68 -134 236q0 111 65 183t173 72q21 0 26 -1l29 109h47l-31 -119q41 -14 70 -41l-13 -50q-8 8 -18.5 15.5t-15.5 10.5t-19.5 10l-16.5 8l-106 -398q20 -6 50 -6q34 0 73 15t59 39l12 -50q-56 -52 -148 -52q-37 0 -58 6zM210 94l104 390 h-12q-83 0 -132.5 -56t-49.5 -149q0 -125 90 -185z" />
<glyph unicode="&#xa3;" horiz-adv-x="540" d="M344 -5q-41 0 -109.5 15.5t-90.5 15.5q-41 0 -78 -25l-30 47q25 16 70 28q83 21 83 167q0 52 -2 68h-106v49h100q-26 135 -26 170q0 85 53 135t139 50q102 0 147 -73l-40 -34q-31 58 -109 58q-140 0 -129 -159q11 -77 25 -147h143v-49h-136q2 -36 2 -77q0 -113 -59 -160 q109 -26 164 -26q83 0 147 46l22 -48q-35 -24 -85 -37.5t-95 -13.5z" />
<glyph unicode="&#xa5;" horiz-adv-x="560" d="M75 214v47h178v46l-21 37h-157v47h131l-186 322h69l195 -349l200 349h67l-187 -322h129v-47h-156l-22 -38v-45h178v-47h-178v-214h-62v214h-178z" />
<glyph unicode="&#xa6;" horiz-adv-x="235" d="M150 -60h-57v315h57v-315zM150 448h-57v315h57v-315z" />
<glyph unicode="&#xa7;" horiz-adv-x="506" d="M217 428q-37 -15 -60 -46t-23 -65q0 -18 7 -35.5t25 -35.5l28.5 -28.5t40.5 -29t35 -22t36 -21.5q37 15 60 46t23 65q0 26 -14.5 51t-41.5 46t-50.5 36t-54.5 33q-7 4 -11 6zM346 114q74 -48 74 -123q0 -64 -47.5 -102.5t-122.5 -38.5q-128 0 -163 83l42 33 q32 -68 120 -68q47 0 78 22q36 26 36 69q0 56 -87 111l-86 54q-60 37 -85.5 73t-25.5 84q0 88 98 147q-74 50 -74 123q0 64 45.5 102.5t117.5 38.5q116 0 154 -87l-38 -29q-32 68 -113 68q-46 0 -77.5 -24t-31.5 -67q0 -57 87 -111l87 -54q59 -37 84.5 -73t25.5 -84 q0 -88 -98 -147z" />
<glyph unicode="&#xa8;" horiz-adv-x="367" d="M99 760q0 23 6 32.5t26 9.5q22 0 27 -10t5 -32q0 -23 -6.5 -32.5t-25.5 -9.5q-20 0 -26 9.5t-6 32.5zM202 760q0 23 6 32.5t26 9.5q22 0 27 -10t5 -32q0 -23 -6.5 -32.5t-25.5 -9.5q-20 0 -26 9.5t-6 32.5z" />
<glyph unicode="&#xa9;" horiz-adv-x="795" d="M384 704q145 0 248.5 -103t103.5 -248t-103 -248.5t-248 -103.5q-146 0 -249 103t-103 248t103 248.5t248 103.5zM385 657q-123 0 -210.5 -90t-87.5 -214t87.5 -214t210.5 -90t210.5 90t87.5 214t-87.5 214t-210.5 90zM561 433l-51 -6q-7 41 -40 66.5t-76 25.5 q-65 0 -104 -45t-39 -116q0 -72 37.5 -121t105.5 -49q46 0 78 26.5t41 71.5l50 -6q-16 -66 -61.5 -103t-107.5 -37q-88 0 -144 61.5t-56 152.5q0 93 54 152t146 59q63 0 109.5 -35.5t57.5 -96.5z" />
<glyph unicode="&#xaa;" horiz-adv-x="263" d="M186 570v42q-20 5 -54 5q-32 0 -52.5 -14.5t-20.5 -43.5q0 -45 54 -45q27 0 48 15.5t25 40.5zM188 526q-31 -35 -79 -35q-35 0 -56.5 19t-21.5 48q0 37 27.5 58.5t75.5 21.5q33 0 52 -4v35q0 48 -59 48q-41 0 -69 -25l-9 20q11 12 35 20t45 8q84 0 84 -73v-139l3 -33h-25 q-3 18 -3 31z" />
<glyph unicode="&#xab;" horiz-adv-x="471" d="M409 456l-141 -186l141 -186h-55l-147 184l147 188h55zM244 456l-141 -186l141 -186h-55l-147 184l147 188h55z" />
<glyph unicode="&#xad;" horiz-adv-x="298" d="M32 241v56h234v-56h-234z" />
<glyph unicode="&#xae;" horiz-adv-x="515" d="M207 594v-82h59q57 0 57 44q0 38 -56 38h-60zM257 719q92 0 157.5 -65.5t65.5 -156.5q0 -92 -65.5 -157.5t-156.5 -65.5q-92 0 -157.5 65t-65.5 157t65 157.5t157 65.5zM258 689q-78 0 -133.5 -57t-55.5 -135t55.5 -135t133.5 -57t133 57t55 135t-55 135t-133 57z M207 482v-113h-34v254h102q85 0 85 -67q0 -66 -69 -72q8 -4 16.5 -15.5t15.5 -23.5l20 -35.5l23 -40.5h-40l-13.5 24.5l-13 24t-11.5 20t-11.5 18t-9.5 13t-9.5 10t-8.5 3.5h-42z" />
<glyph unicode="&#xaf;" d="M118 712v55h289v-55h-289z" />
<glyph unicode="&#xb0;" horiz-adv-x="270" d="M134 731q38 0 65.5 -27.5t27.5 -65.5t-27.5 -65.5t-65.5 -27.5q-39 0 -66 27.5t-27 65.5t27 65.5t66 27.5zM134 696q-25 0 -41.5 -17t-16.5 -41t16.5 -41t41.5 -17q24 0 41 17t17 41t-17 41t-41 17z" />
<glyph unicode="&#xb1;" horiz-adv-x="621" d="M51 356h229v201h56v-201h229v-56h-229v-204h-56v204h-229v56zM52 0v47h514v-47h-514z" />
<glyph unicode="&#xb2;" horiz-adv-x="422" d="M342 298h-282v21q34 38 161 164q72 71 72 122q0 38 -27.5 62.5t-69.5 24.5q-76 0 -109 -59l-23 23q16 28 52.5 47.5t80.5 19.5q60 0 97.5 -32.5t37.5 -83.5q0 -68 -88 -149q-87 -79 -127 -129h225v-31z" />
<glyph unicode="&#xb3;" horiz-adv-x="415" d="M84 648l-15 26q12 21 45 35t72 14q62 0 100.5 -29t38.5 -76q0 -74 -85 -99q89 -18 89 -104q0 -55 -42 -88.5t-111 -33.5q-45 0 -79.5 15t-44.5 37l16 24q27 -45 108 -45q52 0 83 25t31 67q0 86 -120 86h-25v31h16q125 0 125 85q0 32 -28.5 53t-73.5 21q-77 0 -100 -44z " />
<glyph unicode="&#xb4;" horiz-adv-x="455" d="M192 720h-42l101 143h75z" />
<glyph unicode="&#xb5;" horiz-adv-x="522" d="M400 494h56v-494h-43v88q-43 -94 -148 -94q-90 0 -126 43v-195h-56v652h56v-307q0 -72 32.5 -108.5t92.5 -36.5q56 0 94 40t42 99v313z" />
<glyph unicode="&#xb6;" horiz-adv-x="585" d="M534 669h-43v-806h-58v803h-117v-803h-58v468q-87 0 -145 55.5t-58 140.5q0 90 58.5 141t160.5 51h260v-50z" />
<glyph unicode="&#xb7;" horiz-adv-x="259" d="M132 309q25 0 32 -8.5t7 -35.5q0 -26 -8.5 -35t-30.5 -9q-25 0 -32 8.5t-7 35.5t8 35.5t31 8.5z" />
<glyph unicode="&#xb8;" horiz-adv-x="417" d="M124 -176l1 34q36 -14 54 -14q45 0 45 31q0 29 -37 29h-27l48 98h36l-43 -80l20 3q24 0 39.5 -15t15.5 -38q0 -59 -81 -59q-32 0 -71 11z" />
<glyph unicode="&#xb9;" horiz-adv-x="337" d="M187 719h20v-421h-38v389l-63 -26l-6 22z" />
<glyph unicode="&#xba;" horiz-adv-x="288" d="M254 623q0 -54 -30.5 -89.5t-82.5 -35.5t-82.5 35.5t-30.5 89.5q0 53 30.5 88.5t82.5 35.5t82.5 -35.5t30.5 -88.5zM226 623q0 42 -23 71.5t-62 29.5t-62 -29.5t-23 -71.5t23 -72t62 -30t62 30t23 72z" />
<glyph unicode="&#xbb;" horiz-adv-x="472" d="M237 84l139 186l-139 190h55l145 -188l-145 -188h-55zM72 84l139 186l-139 190h55l145 -188l-145 -188h-55z" />
<glyph unicode="&#xbc;" horiz-adv-x="851" d="M187 719h20v-421h-38v389l-63 -26l-6 22zM197 -17l-48 1l450 744h48zM440 132l228 292h35v-286h67v-31h-67v-107h-39v107h-224v25zM664 138v236l-178 -236h178z" />
<glyph unicode="&#xbd;" horiz-adv-x="870" d="M183 719h21v-421h-39v389l-63 -26l-6 22zM177 -15l-48 -1l450 744l48 -2zM781 0h-282v21q34 38 161 164q72 71 72 122q0 38 -27.5 62.5t-69.5 24.5q-76 0 -109 -59l-23 23q16 28 52.5 47.5t80.5 19.5q60 0 97.5 -32.5t37.5 -83.5q0 -68 -88 -149q-87 -79 -127 -129h225 v-31z" />
<glyph unicode="&#xbe;" horiz-adv-x="862" d="M84 648l-15 26q12 21 45 35t72 14q62 0 100.5 -29t38.5 -76q0 -74 -85 -99q89 -18 89 -104q0 -55 -42 -88.5t-111 -33.5q-45 0 -79.5 15t-44.5 37l16 24q27 -45 108 -45q52 0 83 25t31 67q0 86 -120 86h-25v31h16q125 0 125 85q0 32 -28.5 53t-73.5 21q-77 0 -100 -44z M249 -17l-48 1l450 744h48zM470 132l228 293l35 -2v-285h67v-31h-67v-107h-39v107h-224v25zM694 138v232l-175 -232h175z" />
<glyph unicode="&#xbf;" horiz-adv-x="445" d="M243 -222q-78 0 -125 46t-47 122q0 52 48 111l86 87q35 37 35 80q0 34 -22 71l47 28q35 -50 35 -99q0 -66 -59 -120l-70 -71q-41 -47 -41 -89q0 -51 31.5 -82.5t84.5 -31.5q36 0 68 19.5t45 46.5q19 -29 28 -41q-14 -31 -55.5 -54t-88.5 -23zM250 414q-25 0 -32 8.5 t-7 35.5q0 26 8.5 35t30.5 9q25 0 32 -8.5t7 -35.5t-8 -35.5t-31 -8.5z" />
<glyph unicode="&#xc0;" horiz-adv-x="655" d="M314 854l77 -113h-42l-109 113h74zM181 273h287l-143 367zM354 719l282 -719h-62l-86 220h-328l-86 -220h-61l286 719h55z" />
<glyph unicode="&#xc1;" horiz-adv-x="655" d="M306 747h-42l69 116h75zM181 273h287l-143 367zM354 719l282 -719h-62l-86 220h-328l-86 -220h-61l286 719h55z" />
<glyph unicode="&#xc2;" horiz-adv-x="655" d="M249 734h-42l83 116h75l76 -113h-42l-72 75zM181 273h287l-143 367zM354 719l282 -719h-62l-86 220h-328l-86 -220h-61l286 719h55z" />
<glyph unicode="&#xc3;" horiz-adv-x="655" d="M429 824h33q-14 -78 -73 -78q-13 0 -61 17t-60 17q-28 0 -39 -34h-31q14 78 73 78q13 0 61 -17t60 -17q28 0 37 34zM181 273h287l-143 367zM354 719l282 -719h-62l-86 220h-328l-86 -220h-61l286 719h55z" />
<glyph unicode="&#xc4;" horiz-adv-x="655" d="M231 807q0 23 6 32.5t26 9.5q22 0 27 -9.5t5 -32.5t-6.5 -32.5t-25.5 -9.5q-20 0 -26 9.5t-6 32.5zM353 807q0 23 6 32.5t26 9.5q22 0 27 -9.5t5 -32.5t-6.5 -32.5t-25.5 -9.5q-20 0 -26 9.5t-6 32.5zM181 273h287l-143 367zM354 719l282 -719h-62l-86 220h-328l-86 -220 h-61l286 719h55z" />
<glyph unicode="&#xc5;" horiz-adv-x="655" d="M324 858q34 0 58.5 -24.5t24.5 -58.5q0 -51 -47 -74l276 -701h-62l-86 220h-328l-86 -220h-61l278 699q-22 9 -36 30t-14 46q0 35 24.5 59t58.5 24zM181 273h287l-143 367zM324 827q-22 0 -37 -15t-15 -37q0 -18 10.5 -31t27.5 -18h27q17 5 28 18t11 31q0 22 -15.5 37 t-36.5 15z" />
<glyph unicode="&#xc6;" horiz-adv-x="930" d="M472 663h-20l-214 -373h234v373zM472 0v238h-264l-140 -238h-67l418 713h413v-54h-300v-262h271v-53h-271v-291h310v-53h-370z" />
<glyph unicode="&#xc7;" horiz-adv-x="672" d="M111 356q0 -134 77.5 -223.5t208.5 -89.5t201 85l14 -50q-76 -85 -201 -88l-34 -67q14 2 19 2q24 0 39.5 -15t15.5 -38q0 -59 -81 -59q-31 0 -70 11v32q33 -12 54 -12q45 0 45 31q0 29 -37 29h-27l41 87q-147 9 -237 110.5t-90 254.5q0 156 98 261t251 105q138 0 214 -82 l-19 -55q-78 84 -198 84q-129 0 -206.5 -90t-77.5 -223z" />
<glyph unicode="&#xc8;" horiz-adv-x="520" d="M246 850l77 -113h-42l-109 113h74zM464 53v-53h-377v712h367v-53h-307v-262h277v-53h-277v-291h317z" />
<glyph unicode="&#xc9;" horiz-adv-x="520" d="M280 752h-42l101 142h75zM464 53v-53h-377v712h367v-53h-307v-262h277v-53h-277v-291h317z" />
<glyph unicode="&#xca;" horiz-adv-x="520" d="M208 734h-42l83 116h75l76 -113h-42l-72 75zM464 53v-53h-377v712h367v-53h-307v-262h277v-53h-277v-291h317z" />
<glyph unicode="&#xcb;" horiz-adv-x="520" d="M190 807q0 23 6 32.5t26 9.5q22 0 27 -9.5t5 -32.5t-6.5 -32.5t-25.5 -9.5q-20 0 -26 9.5t-6 32.5zM312 807q0 23 6 32.5t26 9.5q22 0 27 -9.5t5 -32.5t-6.5 -32.5t-25.5 -9.5q-20 0 -26 9.5t-6 32.5zM464 53v-53h-377v712h367v-53h-307v-262h277v-53h-277v-291h317z" />
<glyph unicode="&#xcc;" horiz-adv-x="220" d="M71 848l77 -113h-42l-109 113h74zM144 712v-712h-60v712h60z" />
<glyph unicode="&#xcd;" horiz-adv-x="220" d="M106 747h-42l69 116h75zM144 712v-712h-60v712h60z" />
<glyph unicode="&#xce;" horiz-adv-x="220" d="M39 734h-42l83 116h75l76 -113h-42l-72 75zM144 712v-712h-60v712h60z" />
<glyph unicode="&#xcf;" horiz-adv-x="220" d="M19 807q0 23 6 32.5t26 9.5q22 0 27 -9.5t5 -32.5t-6.5 -32.5t-25.5 -9.5q-20 0 -26 9.5t-6 32.5zM141 807q0 23 6 32.5t26 9.5q22 0 27 -9.5t5 -32.5t-6.5 -32.5t-25.5 -9.5q-20 0 -26 9.5t-6 32.5zM144 712v-712h-60v712h60z" />
<glyph unicode="&#xd0;" horiz-adv-x="679" d="M1 344v52h83v316h190q165 0 258 -95t93 -262q0 -166 -99 -261q-97 -94 -274 -94h-168v344h-83zM563 355q0 144 -77.5 224t-217.5 80h-124v-263h204v-52h-204v-291h106q147 0 230 80t83 222z" />
<glyph unicode="&#xd1;" horiz-adv-x="740" d="M483 810h33q-14 -78 -73 -78q-13 0 -61 17t-60 17q-28 0 -39 -34h-31q14 78 73 78q13 0 61 -17t60 -17q28 0 37 34zM594 99v613h60v-712h-58l-453 619v-619h-60v712h65z" />
<glyph unicode="&#xd2;" horiz-adv-x="759" d="M363 854l77 -113h-42l-109 113h74zM647 356q0 128 -73.5 220.5t-195.5 92.5t-195 -92t-73 -221q0 -130 72.5 -221.5t195.5 -91.5t196 92t73 221zM709 356q0 -156 -90 -261t-241 -105q-152 0 -241 104.5t-89 261.5t89 261.5t241 104.5q151 0 241 -105t90 -261z" />
<glyph unicode="&#xd3;" horiz-adv-x="759" d="M350 747h-42l77 116h75zM647 356q0 128 -73.5 220.5t-195.5 92.5t-195 -92t-73 -221q0 -130 72.5 -221.5t195.5 -91.5t196 92t73 221zM709 356q0 -156 -90 -261t-241 -105q-152 0 -241 104.5t-89 261.5t89 261.5t241 104.5q151 0 241 -105t90 -261z" />
<glyph unicode="&#xd4;" horiz-adv-x="759" d="M299 734h-42l83 116h75l76 -113h-42l-72 75zM647 356q0 128 -73.5 220.5t-195.5 92.5t-195 -92t-73 -221q0 -130 72.5 -221.5t195.5 -91.5t196 92t73 221zM709 356q0 -156 -90 -261t-241 -105q-152 0 -241 104.5t-89 261.5t89 261.5t241 104.5q151 0 241 -105t90 -261z " />
<glyph unicode="&#xd5;" horiz-adv-x="759" d="M484 824h33q-13 -78 -73 -78q-13 0 -61 17t-60 17q-28 0 -39 -34h-31q13 78 73 78q13 0 61 -17t60 -17q28 0 37 34zM647 356q0 128 -73.5 220.5t-195.5 92.5t-195 -92t-73 -221q0 -130 72.5 -221.5t195.5 -91.5t196 92t73 221zM709 356q0 -156 -90 -261t-241 -105 q-152 0 -241 104.5t-89 261.5t89 261.5t241 104.5q151 0 241 -105t90 -261z" />
<glyph unicode="&#xd6;" horiz-adv-x="759" d="M284 807q0 23 6 32.5t26 9.5q22 0 27 -9.5t5 -32.5t-6.5 -32.5t-25.5 -9.5q-20 0 -26 9.5t-6 32.5zM406 807q0 23 6 32.5t26 9.5q22 0 27 -9.5t5 -32.5t-6.5 -32.5t-25.5 -9.5q-20 0 -26 9.5t-6 32.5zM647 356q0 128 -73.5 220.5t-195.5 92.5t-195 -92t-73 -221 q0 -130 72.5 -221.5t195.5 -91.5t196 92t73 221zM709 356q0 -156 -90 -261t-241 -105q-152 0 -241 104.5t-89 261.5t89 261.5t241 104.5q151 0 241 -105t90 -261z" />
<glyph unicode="&#xd7;" horiz-adv-x="621" d="M72 80l196 196l-196 196l40 40l196 -196l196 196l40 -40l-196 -196l196 -196l-40 -40l-196 196l-196 -196z" />
<glyph unicode="&#xd8;" horiz-adv-x="759" d="M709 356q0 -156 -90 -261t-241 -105q-125 0 -210 74l-51 -66h-57l76 98q-88 103 -88 260t89 261.5t241 104.5q111 0 194 -62l48 62h57l-71 -92q103 -105 103 -274zM647 356q0 134 -78 226l-365 -471q71 -68 174 -68q123 0 196 92t73 221zM110 356q0 -124 64 -211l362 469 q-68 55 -158 55q-122 0 -195 -92t-73 -221z" />
<glyph unicode="&#xd9;" horiz-adv-x="679" d="M543 255v457h60v-460q0 -121 -71 -192q-70 -70 -190 -70q-122 0 -192 69q-70 70 -70 190v463h60v-459q0 -100 53 -155t149 -55q95 0 148 56t53 156zM318 836l77 -113h-42l-109 113h74z" />
<glyph unicode="&#xda;" horiz-adv-x="679" d="M543 255v457h60v-460q0 -121 -71 -192q-70 -70 -190 -70q-122 0 -192 69q-70 70 -70 190v463h60v-459q0 -100 53 -155t149 -55q95 0 148 56t53 156zM331 720h-42l101 143h75z" />
<glyph unicode="&#xdb;" horiz-adv-x="679" d="M543 255v457h60v-460q0 -121 -71 -192q-70 -70 -190 -70q-122 0 -192 69q-70 70 -70 190v463h60v-459q0 -100 53 -155t149 -55q95 0 148 56t53 156zM267 734h-42l83 116h75l76 -113h-42l-72 75z" />
<glyph unicode="&#xdc;" horiz-adv-x="679" d="M543 255v457h60v-460q0 -121 -71 -192q-70 -70 -190 -70q-122 0 -192 69q-70 70 -70 190v463h60v-459q0 -100 53 -155t149 -55q95 0 148 56t53 156zM252 807q0 23 6 32.5t26 9.5q22 0 27 -9.5t5 -32.5t-6.5 -32.5t-25.5 -9.5q-20 0 -26 9.5t-6 32.5zM374 807q0 23 6 32.5 t26 9.5q22 0 27 -9.5t5 -32.5t-6.5 -32.5t-25.5 -9.5q-20 0 -26 9.5t-6 32.5z" />
<glyph unicode="&#xdd;" horiz-adv-x="581" d="M280 720h-42l101 143h75zM290 373l215 339h68l-252 -394v-318h-60v319l-252 393h70z" />
<glyph unicode="&#xde;" horiz-adv-x="528" d="M87 0v712h60v-146h118q106 0 164.5 -51.5t58.5 -146.5q0 -90 -60.5 -142t-163.5 -52h-117v-174h-60zM147 513v-285h105q175 1 175 145q0 140 -160 140h-120z" />
<glyph unicode="&#xdf;" horiz-adv-x="527" d="M129 535v-535h-55v550q0 95 47 150t138 55q80 0 129 -48t49 -126q0 -120 -109 -157q74 -14 117 -68t43 -134q0 -97 -58 -162.5t-151 -65.5q-33 0 -69 9l11 53q30 -12 58 -12q64 0 107 53t43 124q0 81 -45.5 127t-130.5 46h-13v48h12q57 0 91.5 38.5t34.5 99.5 q0 58 -33.5 93t-90.5 35q-125 0 -125 -173z" />
<glyph unicode="&#xe0;" horiz-adv-x="482" d="M202 650l77 -113h-42l-109 113h74zM356 153v86q-40 10 -110 10q-66 0 -108.5 -29.5t-42.5 -89.5q0 -43 29 -67.5t82 -24.5q55 0 97.5 32t52.5 83zM359 64q-65 -74 -161 -74q-72 0 -116 39t-44 100q0 75 57 119t155 44q62 0 106 -9v72q0 99 -121 99q-82 0 -141 -52l-18 42 q21 24 70.5 40.5t91.5 16.5q173 0 173 -151v-283l6 -67h-52q-6 34 -6 64z" />
<glyph unicode="&#xe1;" horiz-adv-x="482" d="M233 534h-42l69 116h75zM356 153v86q-40 10 -110 10q-66 0 -108.5 -29.5t-42.5 -89.5q0 -43 29 -67.5t82 -24.5q55 0 97.5 32t52.5 83zM359 64q-65 -74 -161 -74q-72 0 -116 39t-44 100q0 75 57 119t155 44q62 0 106 -9v72q0 99 -121 99q-82 0 -141 -52l-18 42 q21 24 70.5 40.5t91.5 16.5q173 0 173 -151v-283l6 -67h-52q-6 34 -6 64z" />
<glyph unicode="&#xe2;" horiz-adv-x="482" d="M162 537h-42l83 116h75l76 -113h-42l-72 75zM356 153v86q-40 10 -110 10q-66 0 -108.5 -29.5t-42.5 -89.5q0 -43 29 -67.5t82 -24.5q55 0 97.5 32t52.5 83zM359 64q-65 -74 -161 -74q-72 0 -116 39t-44 100q0 75 57 119t155 44q62 0 106 -9v72q0 99 -121 99 q-82 0 -141 -52l-18 42q21 24 70.5 40.5t91.5 16.5q173 0 173 -151v-283l6 -67h-52q-6 34 -6 64z" />
<glyph unicode="&#xe3;" horiz-adv-x="482" d="M335 612h33q-14 -78 -73 -78q-13 0 -61 17t-60 17q-28 0 -39 -34h-31q14 78 73 78q13 0 61 -17t60 -17q28 0 37 34zM356 153v86q-40 10 -110 10q-66 0 -108.5 -29.5t-42.5 -89.5q0 -43 29 -67.5t82 -24.5q55 0 97.5 32t52.5 83zM359 64q-65 -74 -161 -74q-72 0 -116 39 t-44 100q0 75 57 119t155 44q62 0 106 -9v72q0 99 -121 99q-82 0 -141 -52l-18 42q21 24 70.5 40.5t91.5 16.5q173 0 173 -151v-283l6 -67h-52q-6 34 -6 64z" />
<glyph unicode="&#xe4;" horiz-adv-x="482" d="M147 603q0 23 6 32.5t26 9.5q22 0 27 -9.5t5 -32.5t-6.5 -32.5t-25.5 -9.5q-20 0 -26 9.5t-6 32.5zM269 603q0 23 6 32.5t26 9.5q22 0 27 -9.5t5 -32.5t-6.5 -32.5t-25.5 -9.5q-20 0 -26 9.5t-6 32.5zM356 153v86q-40 10 -110 10q-66 0 -108.5 -29.5t-42.5 -89.5 q0 -43 29 -67.5t82 -24.5q55 0 97.5 32t52.5 83zM359 64q-65 -74 -161 -74q-72 0 -116 39t-44 100q0 75 57 119t155 44q62 0 106 -9v72q0 99 -121 99q-82 0 -141 -52l-18 42q21 24 70.5 40.5t91.5 16.5q173 0 173 -151v-283l6 -67h-52q-6 34 -6 64z" />
<glyph unicode="&#xe5;" horiz-adv-x="482" d="M242 684q30 0 52 -22t22 -52t-22 -52t-52 -22q-31 0 -52.5 22t-21.5 52t21.5 52t52.5 22zM242 656q-19 0 -32.5 -13.5t-13.5 -32.5t13.5 -32.5t32.5 -13.5t32.5 13.5t13.5 32.5t-13.5 32.5t-32.5 13.5zM356 153v86q-40 10 -110 10q-66 0 -108.5 -29.5t-42.5 -89.5 q0 -43 29 -67.5t82 -24.5q55 0 97.5 32t52.5 83zM359 64q-65 -74 -161 -74q-72 0 -116 39t-44 100q0 75 57 119t155 44q62 0 106 -9v72q0 99 -121 99q-82 0 -141 -52l-18 42q21 24 70.5 40.5t91.5 16.5q173 0 173 -151v-283l6 -67h-52q-6 34 -6 64z" />
<glyph unicode="&#xe6;" horiz-adv-x="806" d="M349 175v64q-42 8 -90 8q-82 0 -125 -32t-43 -86q0 -91 110 -91q57 0 102.5 39t45.5 98zM390 410q58 90 163 90q89 0 141 -64.5t54 -174.5v-21h-348q2 -90 44.5 -146t126.5 -56q36 0 79.5 21.5t63.5 51.5l18 -46q-25 -33 -73.5 -54t-102.5 -21q-114 0 -175 102 q-60 -102 -192 -102q-71 0 -113 38.5t-42 99.5q0 74 55 118.5t155 44.5q60 0 105 -4v54q0 111 -119 111q-81 0 -140 -51l-14 45q26 26 70.5 40t87.5 14q122 0 156 -90zM402 287h286q-4 76 -40 120.5t-95 44.5q-64 0 -104.5 -48t-46.5 -117z" />
<glyph unicode="&#xe7;" horiz-adv-x="452" d="M410 92l12 -50q-55 -50 -145 -52l-35 -68l20 3q24 0 39.5 -15t15.5 -38q0 -59 -81 -59q-32 0 -71 11l1 34q36 -14 54 -14q45 0 45 31q0 29 -37 29h-27l42 88q-97 10 -151 79t-54 174q0 111 65 183t173 72q88 0 141 -52l-13 -50q-52 54 -126 54q-83 0 -132.5 -56 t-49.5 -149q0 -89 48.5 -149t133.5 -60q34 0 73 15t59 39z" />
<glyph unicode="&#xe8;" d="M234 650l77 -113h-42l-109 113h74zM419 105l26 -41q-25 -33 -74.5 -53.5t-103.5 -20.5q-108 0 -168.5 68.5t-60.5 188.5q0 103 58.5 178t156.5 75q97 0 151.5 -67.5t54.5 -192.5h-365q3 -91 48 -146.5t131 -55.5q39 0 82 18.5t64 48.5zM96 287h303q-7 76 -45 120.5 t-98 44.5q-67 0 -110 -47.5t-50 -117.5z" />
<glyph unicode="&#xe9;" d="M239 534h-42l69 116h75zM419 105l26 -41q-25 -33 -74.5 -53.5t-103.5 -20.5q-108 0 -168.5 68.5t-60.5 188.5q0 103 58.5 178t156.5 75q97 0 151.5 -67.5t54.5 -192.5h-365q3 -91 48 -146.5t131 -55.5q39 0 82 18.5t64 48.5zM96 287h303q-7 76 -45 120.5t-98 44.5 q-67 0 -110 -47.5t-50 -117.5z" />
<glyph unicode="&#xea;" d="M177 537h-42l83 116h75l76 -113h-42l-72 75zM419 105l26 -41q-25 -33 -74.5 -53.5t-103.5 -20.5q-108 0 -168.5 68.5t-60.5 188.5q0 103 58.5 178t156.5 75q97 0 151.5 -67.5t54.5 -192.5h-365q3 -91 48 -146.5t131 -55.5q39 0 82 18.5t64 48.5zM96 287h303 q-7 76 -45 120.5t-98 44.5q-67 0 -110 -47.5t-50 -117.5z" />
<glyph unicode="&#xeb;" d="M161 603q0 23 6 32.5t26 9.5q22 0 27 -9.5t5 -32.5t-6.5 -32.5t-25.5 -9.5q-20 0 -26 9.5t-6 32.5zM283 603q0 23 6 32.5t26 9.5q22 0 27 -9.5t5 -32.5t-6.5 -32.5t-25.5 -9.5q-20 0 -26 9.5t-6 32.5zM419 105l26 -41q-25 -33 -74.5 -53.5t-103.5 -20.5 q-108 0 -168.5 68.5t-60.5 188.5q0 103 58.5 178t156.5 75q97 0 151.5 -67.5t54.5 -192.5h-365q3 -91 48 -146.5t131 -55.5q39 0 82 18.5t64 48.5zM96 287h303q-7 76 -45 120.5t-98 44.5q-67 0 -110 -47.5t-50 -117.5z" />
<glyph unicode="&#xec;" horiz-adv-x="200" d="M89 650l77 -113h-42l-109 113h74zM80 494h56v-494h-56v494z" />
<glyph unicode="&#xed;" horiz-adv-x="200" d="M94 534h-42l69 116h75zM80 494h56v-494h-56v494z" />
<glyph unicode="&#xee;" horiz-adv-x="200" d="M31 537h-42l83 116h75l76 -113h-42l-72 75zM80 494h56v-494h-56v494z" />
<glyph unicode="&#xef;" horiz-adv-x="200" d="M17 603q0 23 6 32.5t26 9.5q22 0 27 -9.5t5 -32.5t-6.5 -32.5t-25.5 -9.5q-20 0 -26 9.5t-6 32.5zM139 603q0 23 6 32.5t26 9.5q22 0 27 -9.5t5 -32.5t-6.5 -32.5t-25.5 -9.5q-20 0 -26 9.5t-6 32.5zM80 494h56v-494h-56v494z" />
<glyph unicode="&#xf0;" horiz-adv-x="540" d="M507 264q0 -121 -60 -198t-173 -77q-107 0 -171.5 72t-64.5 182q0 111 64.5 184t171.5 73q87 0 151 -64q-10 42 -45 95t-78 92l-109 -65l-27 37l98 58q-48 37 -116 56l24 41q87 -28 138 -69l98 58l26 -37l-86 -52q82 -76 120.5 -169t38.5 -217zM274 454q-84 0 -131.5 -61 t-47.5 -150q0 -87 48.5 -147t130.5 -60q80 0 128 61.5t48 146.5q0 89 -46 149.5t-130 60.5z" />
<glyph unicode="&#xf1;" horiz-adv-x="520" d="M451 314v-314h-56v308q0 71 -31.5 109t-89.5 38q-59 0 -101 -45.5t-42 -109.5v-300h-56v495h50l3 -81q29 47 65 67.5t87 20.5q82 0 126.5 -48t44.5 -140zM370 612h33q-13 -78 -73 -78q-13 0 -61 17t-60 17q-28 0 -39 -34h-31q13 78 73 78q13 0 61 -17t60 -17q28 0 37 34z " />
<glyph unicode="&#xf2;" horiz-adv-x="542" d="M254 650l77 -113h-42l-109 113h74zM502 245q0 -110 -62.5 -182.5t-169.5 -72.5t-169.5 72.5t-62.5 182.5t63 182.5t169 72.5t169 -72.5t63 -182.5zM444 245q0 86 -46.5 146.5t-127.5 60.5t-127.5 -60.5t-46.5 -146.5t46.5 -146.5t127.5 -60.5t127.5 60.5t46.5 146.5z" />
<glyph unicode="&#xf3;" horiz-adv-x="542" d="M249 534h-42l69 116h75zM502 245q0 -110 -62.5 -182.5t-169.5 -72.5t-169.5 72.5t-62.5 182.5t63 182.5t169 72.5t169 -72.5t63 -182.5zM444 245q0 86 -46.5 146.5t-127.5 60.5t-127.5 -60.5t-46.5 -146.5t46.5 -146.5t127.5 -60.5t127.5 60.5t46.5 146.5z" />
<glyph unicode="&#xf4;" horiz-adv-x="542" d="M189 537h-42l83 116h75l76 -113h-42l-72 75zM502 245q0 -110 -62.5 -182.5t-169.5 -72.5t-169.5 72.5t-62.5 182.5t63 182.5t169 72.5t169 -72.5t63 -182.5zM444 245q0 86 -46.5 146.5t-127.5 60.5t-127.5 -60.5t-46.5 -146.5t46.5 -146.5t127.5 -60.5t127.5 60.5 t46.5 146.5z" />
<glyph unicode="&#xf5;" horiz-adv-x="542" d="M382 612h33q-13 -78 -73 -78q-13 0 -61 17t-60 17q-28 0 -39 -34h-31q13 78 73 78q13 0 61 -17t60 -17q28 0 37 34zM502 245q0 -110 -62.5 -182.5t-169.5 -72.5t-169.5 72.5t-62.5 182.5t63 182.5t169 72.5t169 -72.5t63 -182.5zM444 245q0 86 -46.5 146.5t-127.5 60.5 t-127.5 -60.5t-46.5 -146.5t46.5 -146.5t127.5 -60.5t127.5 60.5t46.5 146.5z" />
<glyph unicode="&#xf6;" horiz-adv-x="542" d="M176 603q0 23 6 32.5t26 9.5q22 0 27 -9.5t5 -32.5t-6.5 -32.5t-25.5 -9.5q-20 0 -26 9.5t-6 32.5zM298 603q0 23 6 32.5t26 9.5q22 0 27 -9.5t5 -32.5t-6.5 -32.5t-25.5 -9.5q-20 0 -26 9.5t-6 32.5zM502 245q0 -110 -62.5 -182.5t-169.5 -72.5t-169.5 72.5t-62.5 182.5 t63 182.5t169 72.5t169 -72.5t63 -182.5zM444 245q0 86 -46.5 146.5t-127.5 60.5t-127.5 -60.5t-46.5 -146.5t46.5 -146.5t127.5 -60.5t127.5 60.5t46.5 146.5z" />
<glyph unicode="&#xf7;" horiz-adv-x="613" d="M565 248h-514v56h514v-56zM312 512q25 0 32 -8.5t7 -35.5q0 -26 -8.5 -35t-30.5 -9q-25 0 -32 8.5t-7 35.5t8 35.5t31 8.5zM312 134q25 0 32 -8.5t7 -35.5q0 -26 -8.5 -35t-30.5 -9q-25 0 -32 8.5t-7 35.5t8 35.5t31 8.5z" />
<glyph unicode="&#xf8;" horiz-adv-x="542" d="M502 245q0 -110 -62.5 -182.5t-169.5 -72.5q-85 0 -143 47l-32 -39h-57l57 70q-57 71 -57 177q0 110 63 182.5t169 72.5q81 0 141 -47l34 42h57l-59 -73q59 -70 59 -177zM444 245q0 76 -37 133l-246 -300q45 -40 109 -40q81 0 127.5 60.5t46.5 146.5zM96 245 q0 -78 36 -132l245 299q-43 40 -107 40q-81 0 -127.5 -60.5t-46.5 -146.5z" />
<glyph unicode="&#xf9;" horiz-adv-x="519" d="M237 650l77 -113h-42l-109 113h74zM394 494h56v-494h-44l-4 77q-42 -87 -155 -87q-173 0 -173 182v322h56v-311q0 -145 119 -145q61 0 103 39.5t42 99.5v317z" />
<glyph unicode="&#xfa;" horiz-adv-x="519" d="M250 534h-42l69 116h75zM394 494h56v-494h-44l-4 77q-42 -87 -155 -87q-173 0 -173 182v322h56v-311q0 -145 119 -145q61 0 103 39.5t42 99.5v317z" />
<glyph unicode="&#xfb;" horiz-adv-x="519" d="M188 537h-42l83 116h75l76 -113h-42l-72 75zM394 494h56v-494h-44l-4 77q-42 -87 -155 -87q-173 0 -173 182v322h56v-311q0 -145 119 -145q61 0 103 39.5t42 99.5v317z" />
<glyph unicode="&#xfc;" horiz-adv-x="519" d="M171 603q0 23 6 32.5t26 9.5q22 0 27 -9.5t5 -32.5t-6.5 -32.5t-25.5 -9.5q-20 0 -26 9.5t-6 32.5zM293 603q0 23 6 32.5t26 9.5q22 0 27 -9.5t5 -32.5t-6.5 -32.5t-25.5 -9.5q-20 0 -26 9.5t-6 32.5zM394 494h56v-494h-44l-4 77q-42 -87 -155 -87q-173 0 -173 182v322 h56v-311q0 -145 119 -145q61 0 103 39.5t42 99.5v317z" />
<glyph unicode="&#xfd;" horiz-adv-x="444" d="M213 495h-42l101 142h75zM224 85l155 409h59l-251 -630q-19 -48 -48.5 -68.5t-86.5 -17.5v48q36 -3 53 7t28 34l64 150l-191 477h60z" />
<glyph unicode="&#xfe;" horiz-adv-x="549" d="M131 69v-290h-56v972h56v-333q21 40 63 61t92 21q105 0 162 -72.5t57 -183.5q0 -108 -56.5 -181t-158.5 -73q-104 0 -159 79zM130 287v-76q0 -70 45.5 -121.5t105.5 -51.5q78 0 121.5 55.5t43.5 151.5q0 85 -43 146t-121 61q-62 0 -107 -45.5t-45 -119.5z" />
<glyph unicode="&#xff;" horiz-adv-x="444" d="M134 606q0 23 6 32.5t26 9.5q22 0 27 -10t5 -32q0 -23 -6.5 -32.5t-25.5 -9.5q-20 0 -26 9.5t-6 32.5zM256 606q0 23 6 32.5t26 9.5q22 0 27 -10t5 -32q0 -23 -6.5 -32.5t-25.5 -9.5q-20 0 -26 9.5t-6 32.5zM224 85l155 409h59l-251 -630q-19 -48 -48.5 -68.5 t-86.5 -17.5v48q36 -3 53 7t28 34l64 150l-191 477h60z" />
<glyph unicode="&#x152;" horiz-adv-x="1071" d="M1013 53v-53h-377v128q-89 -138 -258 -138q-152 0 -241 104.5t-89 261.5t89 261.5t241 104.5q170 0 258 -134v124h367v-53h-307v-262h277v-53h-277v-291h317zM378 669q-122 0 -195 -92t-73 -221q0 -130 72.5 -221.5t195.5 -91.5q102 0 180 74t78 167v150 q0 84 -79.5 159.5t-178.5 75.5z" />
<glyph unicode="&#x153;" horiz-adv-x="909" d="M825 105l26 -41q-25 -33 -74.5 -53.5t-103.5 -20.5q-70 0 -122.5 34t-80.5 93q-20 -56 -75 -91.5t-125 -35.5q-107 0 -169.5 72.5t-62.5 182.5t63 182.5t169 72.5q69 0 121 -33t81 -90q27 57 75 90t112 33q97 0 151.5 -67.5t54.5 -192.5h-363q-4 -84 45.5 -143t131.5 -59 q39 0 82 18.5t64 48.5zM270 452q-81 0 -127.5 -60.5t-46.5 -146.5t46.5 -146.5t127.5 -60.5q85 0 128.5 60t45.5 155q-2 83 -48.5 141t-125.5 58zM502 287h303q-7 76 -45 120.5t-98 44.5q-67 0 -110 -47.5t-50 -117.5z" />
<glyph unicode="&#x178;" horiz-adv-x="581" d="M202 807q0 23 6 32.5t26 9.5q22 0 27 -9.5t5 -32.5t-6.5 -32.5t-25.5 -9.5q-20 0 -26 9.5t-6 32.5zM324 807q0 23 6 32.5t26 9.5q22 0 27 -9.5t5 -32.5t-6.5 -32.5t-25.5 -9.5q-20 0 -26 9.5t-6 32.5zM290 373l215 339h68l-252 -394v-318h-60v319l-252 393h70z" />
<glyph unicode="&#x2c6;" d="M170 734h-42l83 116h75l76 -113h-42l-72 75z" />
<glyph unicode="&#x2dc;" horiz-adv-x="445" d="M316 810h33q-13 -78 -73 -78q-13 0 -61 17t-60 17q-28 0 -39 -34h-31q13 78 73 78q13 0 61 -17t60 -17q28 0 37 34z" />
<glyph unicode="&#x2000;" horiz-adv-x="447" />
<glyph unicode="&#x2001;" horiz-adv-x="894" />
<glyph unicode="&#x2002;" horiz-adv-x="447" />
<glyph unicode="&#x2003;" horiz-adv-x="894" />
<glyph unicode="&#x2004;" horiz-adv-x="298" />
<glyph unicode="&#x2005;" horiz-adv-x="223" />
<glyph unicode="&#x2006;" horiz-adv-x="149" />
<glyph unicode="&#x2007;" horiz-adv-x="149" />
<glyph unicode="&#x2008;" horiz-adv-x="111" />
<glyph unicode="&#x2009;" horiz-adv-x="178" />
<glyph unicode="&#x200a;" horiz-adv-x="49" />
<glyph unicode="&#x2010;" horiz-adv-x="298" d="M32 241v56h234v-56h-234z" />
<glyph unicode="&#x2011;" horiz-adv-x="298" d="M32 241v56h234v-56h-234z" />
<glyph unicode="&#x2013;" horiz-adv-x="502" d="M-1 248v52h503v-52h-503z" />
<glyph unicode="&#x2014;" horiz-adv-x="926" d="M-1 248v52h926v-52h-926z" />
<glyph unicode="&#x2018;" horiz-adv-x="211" d="M86 557h-23q-31 0 -14 60q5 17 24.5 69t27.5 69q7 14 28 14q18 0 12 -16q-27 -92 -27 -146q0 -50 -28 -50z" />
<glyph unicode="&#x2019;" horiz-adv-x="202" d="M104 753h23q31 0 14 -60q-5 -17 -24.5 -69t-27.5 -69q-7 -14 -28 -14q-18 0 -12 16q27 92 27 146q0 50 28 50z" />
<glyph unicode="&#x201a;" horiz-adv-x="271" d="M133 79h23q31 0 14 -60q-5 -17 -24.5 -69t-27.5 -69q-7 -14 -28 -14q-18 0 -12 16q27 92 27 146q0 50 28 50z" />
<glyph unicode="&#x201c;" horiz-adv-x="303" d="M198 557h-23q-31 0 -14 60q5 17 24.5 69t27.5 69q7 14 28 14q18 0 12 -16q-27 -92 -27 -146q0 -50 -28 -50zM86 557h-23q-31 0 -14 60q5 17 24.5 69t27.5 69q7 14 28 14q18 0 12 -16q-27 -92 -27 -146q0 -50 -28 -50z" />
<glyph unicode="&#x201d;" horiz-adv-x="316" d="M104 753h23q31 0 14 -60q-5 -17 -24.5 -69t-27.5 -69q-7 -14 -28 -14q-18 0 -12 16q27 92 27 146q0 50 28 50zM216 753h23q31 0 14 -60q-5 -17 -24.5 -69t-27.5 -69q-7 -14 -28 -14q-18 0 -12 16q27 92 27 146q0 50 28 50z" />
<glyph unicode="&#x201e;" horiz-adv-x="362" d="M133 79h23q31 0 14 -60q-5 -17 -24.5 -69t-27.5 -69q-7 -14 -28 -14q-18 0 -12 16q27 92 27 146q0 50 28 50zM245 79h23q31 0 14 -60q-5 -17 -24.5 -69t-27.5 -69q-7 -14 -28 -14q-18 0 -12 16q27 92 27 146q0 50 28 50z" />
<glyph unicode="&#x2022;" d="M264 433q69 0 106 -40.5t37 -108.5q0 -66 -37 -105.5t-99 -39.5q-63 0 -103 39t-40 106q0 63 38 106t98 43z" />
<glyph unicode="&#x2026;" horiz-adv-x="532" d="M443 86q25 0 32 -8.5t7 -35.5q0 -26 -8.5 -35t-30.5 -9q-25 0 -32 8.5t-7 35.5t8 35.5t31 8.5zM265 86q25 0 32 -8.5t7 -35.5q0 -26 -8.5 -35t-30.5 -9q-25 0 -32 8.5t-7 35.5t8 35.5t31 8.5zM88 86q25 0 32 -8.5t7 -35.5q0 -26 -8.5 -35t-30.5 -9q-25 0 -32 8.5t-7 35.5 t8 35.5t31 8.5z" />
<glyph unicode="&#x202f;" horiz-adv-x="178" />
<glyph unicode="&#x2039;" horiz-adv-x="323" d="M244 456l-141 -186l141 -186h-55l-147 184l147 188h55z" />
<glyph unicode="&#x203a;" horiz-adv-x="355" d="M72 84l139 186l-139 190h55l145 -188l-145 -188h-55z" />
<glyph unicode="&#x205f;" horiz-adv-x="223" />
<glyph unicode="&#x20ac;" horiz-adv-x="644" d="M53 291h-53v40h50q-4 26 0 62h-50v45h56q22 126 118 205t224 79q133 0 210 -83l-15 -54q-78 84 -198 84q-104 0 -179.5 -63.5t-96.5 -167.5h383v-45h-389q-3 -40 -1 -62h392v-40h-388q15 -111 92.5 -179.5t188.5 -68.5q131 0 201 85l18 -54q-84 -84 -214 -84 q-138 0 -235 82.5t-114 218.5z" />
<glyph unicode="&#x2122;" horiz-adv-x="651" d="M252 713v-30h-89v-237h-35v237h-89v30h213zM512 713h58v-267h-33v238l-93 -238h-23l-89 232v-232h-32v267h55l80 -209z" />
</font>
</defs>
</svg>
