<?xml version="1.0" encoding="utf-8"?>
<!-- Generator: Adobe Illustrator 19.2.0, SVG Export Plug-In . SVG Version: 6.00 Build 0)  -->
<svg version="1.1" xmlns="http://www.w3.org/2000/svg" xmlns:xlink="http://www.w3.org/1999/xlink" x="0px" y="0px"
	 viewBox="0 0 78.5 78.5" style="enable-background:new 0 0 78.5 78.5;" xml:space="preserve">
<style type="text/css">
	.st0{display:none;}
	.st1{display:inline;fill:#A02727;}
	.st2{fill:#FFFFFF;}
	.st3{display:none;fill:#FFFFFF;stroke:#000000;stroke-miterlimit:10;}
</style>
<g id="Layer_2" class="st0">
	<rect x="-7.8" y="-7.8" class="st1" width="94" height="94"/>
</g>
<g id="Capa_1">
	<path class="st2" d="M60.7,41.2c-7.8-4.7-17.7-7.2-28-7.2c-6.6,0-11.1,0.9-15.5,2.1c-1.6,0.5-2.4,1.6-2.4,3.3
		c0,1.7,1.4,3.1,3.1,3.1c0.7,0,1.1-0.2,1.9-0.4c3.5-0.9,7.8-1.6,12.8-1.6c9.7,0,18.5,2.5,24.9,6.3c0.6,0.3,1.1,0.7,2,0.7
		c1.7,0,3.1-1.4,3.1-3.1C62.5,42.9,62,41.9,60.7,41.2z M56,52.7c-6.6-3.9-14.2-5.9-22.8-5.9c-5,0-9.8,0.6-14.7,1.7
		c-1.2,0.2-2.1,1-2.1,2.7c0,1.3,1,2.5,2.5,2.5c0.5,0,1.3-0.2,1.9-0.4c4-0.8,8.2-1.4,12.4-1.4c7.5,0,14.6,1.8,20.3,5.2
		c0.6,0.4,1,0.6,1.7,0.6c1.3,0,2.4-1,2.4-2.5C57.6,53.8,57,53.3,56,52.7z M66,28c-8.9-5.2-21-7.6-32.5-7.6c-6.8,0-13,0.8-18.6,2.4
		c-1.4,0.4-2.7,1.6-2.7,3.8c0,2.1,1.6,3.7,3.7,3.7c0.7,0,1.4-0.3,2-0.4c4.9-1.3,10.4-1.9,15.7-1.9c10.7,0,21.7,2.3,28.8,6.6
		c0.8,0.4,1.2,0.6,2,0.6c2,0,3.7-1.5,3.7-3.7C68,29.7,67.2,28.7,66,28z M78.5,39.2c0,21.7-17.6,39.2-39.2,39.2S0,60.9,0,39.2
		S17.6,0,39.2,0S78.5,17.6,78.5,39.2z"/>
	<path class="st3" d="M81.2-7.8h-84c-2.8,0-5,2.2-5,5v84c0,2.8,2.2,5,5,5h84c2.8,0,5-2.2,5-5v-84C86.2-5.5,84-7.8,81.2-7.8z
		 M39.2,78.5C17.6,78.5,0,60.9,0,39.2S17.6,0,39.2,0c21.7,0,39.2,17.6,39.2,39.2S60.9,78.5,39.2,78.5z"/>
</g>
</svg>
