<?xml version="1.0" encoding="utf-8"?>
<!-- Generator: Adobe Illustrator 19.2.0, SVG Export Plug-In . SVG Version: 6.00 Build 0)  -->
<svg version="1.1" id="Layer_1" xmlns="http://www.w3.org/2000/svg" xmlns:xlink="http://www.w3.org/1999/xlink" x="0px" y="0px"
	 viewBox="0 0 19.1 19.8" style="enable-background:new 0 0 19.1 19.8;" xml:space="preserve">
<style type="text/css">
	.st0{display:none;fill:#FFFFFF;}
	.st1{fill:#FFFFFF;}
</style>
<path class="st0" d="M36.5,19.6V6.1h-0.1L31,19.6h-2.1L23.5,6.1h-0.1v13.5h-2.5V1.3h3.2l5.8,14.6H30l5.8-14.6h3.3v18.3L36.5,19.6
	L36.5,19.6z M53.2,19.6h-2.6v-2.3h-0.1c-0.7,1.6-2.1,2.5-4.1,2.5c-2.9,0-4.6-1.9-4.6-5V6.2h2.7v8.1c0,2,1,3.1,2.8,3.1
	c2,0,3.1-1.4,3.1-3.5V6.2h2.7L53.2,19.6L53.2,19.6z M60.6,6c3.1,0,5,1.7,5.1,4.2h-2.5c-0.2-1.3-1.1-2.1-2.6-2.1s-2.5,0.7-2.5,1.8
	c0,0.8,0.6,1.4,2,1.7l2.1,0.5c2.7,0.6,3.7,1.7,3.7,3.6c0,2.4-2.2,4.1-5.3,4.1c-3.3,0-5.3-1.6-5.5-4.2h2.7c0.2,1.4,1.2,2.1,2.8,2.1
	s2.6-0.7,2.6-1.8c0-0.9-0.5-1.4-1.9-1.7l-2.1-0.5c-2.5-0.6-3.7-1.8-3.7-3.8C55.5,7.6,57.5,6,60.6,6z M67.9,2.7
	c0-0.9,0.7-1.6,1.6-1.6s1.6,0.7,1.6,1.6s-0.7,1.6-1.6,1.6S67.9,3.6,67.9,2.7L67.9,2.7z M68.1,6.2h2.7v13.4h-2.7V6.2z M82.2,10.8
	c-0.3-1.4-1.3-2.6-3.1-2.6c-2.1,0-3.5,1.8-3.5,4.6c0,2.9,1.4,4.6,3.5,4.6c1.7,0,2.7-0.9,3.1-2.5h2.6c-0.3,2.8-2.5,4.8-5.7,4.8
	c-3.8,0-6.2-2.6-6.2-6.9c0-4.2,2.4-6.9,6.2-6.9c3.4,0,5.4,2.2,5.7,4.8L82.2,10.8L82.2,10.8z"/>
<path class="st1" d="M12.2,3.2C11.5,4,10.4,4.7,9.3,4.6c-0.2-1.2,0.4-2.4,1-3.1C11,0.6,12.2,0,13.2,0C13.3,1.1,12.9,2.3,12.2,3.2
	L12.2,3.2z"/>
<path class="st1" d="M13.2,4.8c0.6,0,2.4,0.2,3.6,2c-0.1,0.1-2.1,1.3-2.1,3.8c0,3,2.6,4,2.6,4c0,0.1-0.4,1.4-1.3,2.8
	c-0.8,1.2-1.7,2.4-3,2.4S11.3,19,9.8,19s-2,0.8-3.2,0.8c-1.3,0-2.3-1.3-3.1-2.5c-1.7-2.5-3-7-1.2-10c0.8-1.5,2.4-2.5,4-2.5
	c1.3,0,2.5,0.9,3.2,0.9C10.2,5.7,11.6,4.7,13.2,4.8L13.2,4.8z"/>
</svg>
